<svg width="45" height="40" viewBox="0 0 45 40" fill="none" xmlns="http://www.w3.org/2000/svg">
<path d="M22.033 0C9.85975 0 0 8.93379 0 19.9638C0 30.9938 9.85975 39.9275 22.033 39.9275C34.2062 39.9275 44.0659 30.9938 44.0659 19.9638C44.0659 8.93379 34.2062 0 22.033 0Z" fill="#B3B5B3"/>
<path d="M35.9688 31.0936C32.1681 34.2878 27.6513 36.2343 22.033 36.2343C16.4146 36.2343 11.8978 34.2878 8.09717 31.0936C8.09717 31.0936 17.0756 26.9012 17.0756 25.2542V22.3594C16.1942 21.1616 15.6434 20.0636 15.4782 19.7142C15.0926 19.4647 13.8808 18.6162 13.7706 17.069C13.7156 15.8213 14.1562 15.5218 14.5969 15.4719C14.5969 15.4719 13.6054 7.43652 22.033 7.43652C30.4605 7.43652 29.4691 15.4719 29.4691 15.4719C29.9097 15.5218 30.4054 15.8213 30.2953 17.069C30.1851 18.6162 28.9733 19.5146 28.5877 19.7142C28.4225 20.0636 27.8717 21.2115 26.9904 22.3594V25.2542C26.9904 26.9012 35.9688 31.0936 35.9688 31.0936Z" fill="white"/>
</svg>
